<?xml version="1.0" standalone="no"?>
<!DOCTYPE svg PUBLIC "-//W3C//DTD SVG 20010904//EN"
 "http://www.w3.org/TR/2001/REC-SVG-20010904/DTD/svg10.dtd">
<svg version="1.0" xmlns="http://www.w3.org/2000/svg"
 width="1024.000000pt" height="1024.000000pt" viewBox="0 0 1024.000000 1024.000000"
 preserveAspectRatio="xMidYMid meet">

<g transform="translate(0.000000,1024.000000) scale(0.100000,-0.100000)"
fill="#000000" stroke="none">
<path d="M6790 8650 c-339 -137 -748 -240 -1125 -284 -71 -8 -148 -18 -170
-22 -22 -3 -661 -9 -1420 -13 l-1380 -6 -95 -33 c-250 -87 -426 -279 -474
-514 -14 -69 -16 -358 -16 -2696 0 -1825 3 -2636 11 -2678 35 -196 195 -363
387 -403 38 -8 569 -11 1822 -11 l1769 0 72 -46 c145 -94 350 -176 521 -209
425 -81 855 54 1149 362 178 187 286 410 325 673 21 149 15 420 -15 597 -38
221 -167 676 -225 790 l-26 52 0 1834 c0 2006 3 1887 -58 2001 -43 81 -148
180 -234 221 -110 52 -185 65 -394 65 l-182 0 -4 123 c-4 132 -17 172 -63 203
-43 28 -94 26 -175 -6z m40 -1623 c0 -1378 -1 -1416 -20 -1491 -51 -200 -187
-334 -410 -402 -63 -20 -143 -46 -177 -59 -52 -19 -64 -21 -73 -9 -21 24 -94
62 -155 79 -189 55 -424 -66 -496 -255 -35 -92 -36 -165 -4 -276 l29 -95 -18
-92 c-110 -575 -460 -912 -1160 -1116 -325 -95 -647 -141 -1247 -176 -141 -8
-287 -21 -325 -29 -169 -36 -313 -109 -431 -220 l-33 -30 0 2420 c0 2638 -4
2462 57 2582 63 124 226 239 373 262 41 6 533 10 1340 10 761 0 1321 4 1390
10 433 38 783 110 1160 238 96 33 181 61 188 61 9 1 12 -288 12 -1412z m663
1074 c70 -28 149 -102 180 -168 l22 -48 5 -1758 c4 -1560 3 -1757 -10 -1753
-8 3 -42 15 -75 27 -119 43 -271 24 -342 -43 l-22 -21 -52 23 c-65 28 -186 37
-257 20 -28 -6 -71 -25 -97 -41 l-46 -29 -59 20 c-71 24 -170 26 -230 5 -24
-8 -44 -14 -45 -13 0 2 -40 127 -87 278 -75 238 -84 277 -72 287 9 6 48 19 87
28 261 63 452 207 560 421 77 153 71 37 74 1491 l4 1302 202 -3 c184 -2 207
-4 260 -25z m-1486 -3177 c51 -32 84 -79 107 -154 7 -25 57 -180 109 -345 53
-165 125 -403 162 -530 37 -126 73 -240 81 -253 21 -32 76 -56 109 -48 38 10
75 50 75 83 0 15 -27 124 -61 242 -48 170 -58 216 -47 222 23 15 112 9 153
-10 22 -10 53 -32 68 -48 30 -32 89 -161 127 -278 29 -87 64 -125 115 -125 50
0 95 44 95 93 0 45 -72 253 -116 336 -18 36 -31 67 -29 70 12 11 125 12 158 2
72 -24 114 -65 156 -153 22 -46 52 -119 66 -163 33 -96 60 -125 116 -125 50 0
99 43 99 87 0 45 -51 190 -102 292 -27 52 -45 97 -42 100 3 3 38 6 77 5 134
-1 229 -75 285 -222 70 -183 153 -483 187 -677 25 -137 30 -389 12 -511 -51
-330 -219 -586 -491 -750 -177 -107 -351 -150 -571 -141 -260 11 -454 75 -680
224 -85 56 -800 628 -893 715 -53 48 -73 92 -73 162 -1 58 10 86 50 129 38 42
79 60 136 60 50 0 133 -35 486 -202 105 -50 154 -54 192 -15 40 39 41 68 8
179 -16 55 -36 129 -45 165 -8 36 -44 160 -79 275 -36 116 -91 298 -122 405
-31 107 -92 312 -136 454 -43 142 -79 271 -79 285 0 14 9 44 19 66 56 121 207
168 318 99z m-357 -807 c0 -7 23 -86 50 -177 94 -306 201 -683 196 -687 -3 -3
-80 30 -173 73 l-168 79 -105 0 c-99 0 -110 -2 -171 -32 -80 -39 -150 -111
-187 -191 -24 -51 -27 -69 -27 -162 1 -127 23 -194 90 -267 24 -26 183 -160
354 -298 170 -137 310 -252 310 -255 1 -3 -738 -4 -1641 -3 l-1643 3 -62 31
c-97 47 -142 120 -143 230 -1 145 161 331 356 407 77 31 185 49 324 56 510 26
928 77 1220 147 572 137 970 363 1207 686 64 86 162 269 183 340 12 38 30 50
30 20z"/>
<path d="M2871 7274 c-56 -28 -101 -80 -123 -142 -10 -29 -13 -197 -13 -787
l0 -750 27 -50 c32 -62 70 -98 128 -124 45 -20 57 -21 1686 -21 l1640 0 52 26
c61 30 105 80 127 143 23 67 23 1507 0 1572 -19 54 -76 115 -130 140 -38 18
-103 19 -1691 19 l-1650 0 -53 -26z m3323 -190 c14 -14 16 -93 18 -712 0 -383
0 -706 -1 -716 -1 -11 -9 -28 -18 -38 -15 -17 -87 -18 -1619 -18 l-1603 0 -20
26 c-21 26 -21 34 -21 730 0 691 0 704 20 724 20 20 33 20 1624 20 1445 0
1606 -2 1620 -16z"/>
<path d="M4830 6748 c-161 -62 -253 -266 -221 -491 26 -187 130 -304 299 -337
150 -30 332 63 332 168 0 82 -76 106 -158 50 -63 -44 -141 -50 -191 -16 -19
12 -42 34 -53 48 -42 58 -48 238 -9 325 26 58 71 88 140 93 50 3 61 0 111 -32
30 -20 60 -36 67 -36 32 0 65 23 79 55 12 30 12 40 0 68 -18 45 -80 94 -140
112 -73 22 -189 18 -256 -7z"/>
<path d="M5413 6760 c-52 -22 -54 -41 -51 -431 l3 -361 28 -24 c39 -33 99 -33
132 1 23 23 25 31 25 130 l0 105 34 38 c19 20 36 35 39 32 2 -3 46 -71 96
-152 115 -184 132 -198 206 -163 34 17 55 50 55 88 0 12 -49 100 -110 194 -60
95 -110 176 -110 181 0 5 45 62 100 127 85 99 100 122 100 151 0 63 -70 109
-128 85 -16 -7 -80 -76 -153 -164 l-124 -152 -3 136 c-2 128 -4 137 -26 158
-26 25 -81 35 -113 21z"/>
<path d="M3218 6748 c-9 -7 -22 -26 -28 -41 -13 -36 -14 -696 0 -731 15 -41
42 -48 188 -47 197 1 283 30 371 126 55 59 78 116 93 224 21 164 -18 300 -113
385 -83 74 -136 89 -329 94 -126 2 -169 0 -182 -10z m304 -168 c87 -25 128
-97 128 -229 0 -92 -13 -141 -47 -181 -37 -45 -76 -61 -159 -67 l-74 -6 0 247
0 246 58 0 c31 0 74 -5 94 -10z"/>
<path d="M3999 6734 l-24 -26 -3 -338 c-3 -358 2 -411 39 -431 14 -7 96 -11
231 -11 201 0 211 1 233 22 27 26 37 64 24 99 -18 46 -34 50 -186 51 l-143 0
0 80 0 80 124 0 c110 0 126 2 150 21 21 16 26 29 26 64 0 35 -5 48 -26 64 -24
19 -40 21 -150 21 l-124 0 0 75 0 75 134 0 c130 0 135 1 165 26 41 34 44 92 6
129 -24 25 -24 25 -238 25 l-214 0 -24 -26z"/>
<path d="M7355 5453 c-38 -9 -65 -46 -86 -117 -39 -135 -94 -232 -178 -316
-85 -85 -175 -142 -301 -189 -107 -41 -125 -58 -125 -117 0 -38 5 -50 28 -70
37 -31 87 -31 172 1 236 88 415 241 518 443 57 110 100 246 92 288 -9 52 -67
89 -120 77z"/>
</g>
</svg>
